<?xml version="1.0" encoding="UTF-8"?>
<svg id="Capa_2" data-name="Capa 2" xmlns="http://www.w3.org/2000/svg" viewBox="0 0 46.44 35.7">
  <defs>
    <style>
      .cls-1 {
        fill: #854947;
      }

      .cls-2 {
        opacity: .15;
      }
    </style>
  </defs>
  <g id="BACKGROUND_2" data-name="BACKGROUND 2">
    <g class="cls-2">
      <path class="cls-1" d="M21.17,24.77c-.09.06-.2.1-.26.18-.73.97-1.28,1.12-2.39.66-.59-.25-.94-.67-1.09-1.3-.15-.61-.32-1.22-.52-1.82-.23-.72-.62-1.24-1.47-1.39-.47-.08-.98-.35-1.32-.69-.69-.66-1.57-.95-2.36-1.4-.27-.15-.48-.34-.64-.59-.61-.96-1.06-1.96-.95-3.16.07-.75-.09-1.49-.28-2.23-.15-.57.17-1.2.34-1.8.15-.56.8-.94.47-1.72-.12-.28.39-.86.66-1.28.44-.67.95-1.28,1.72-1.6.11-.05.24-.13.29-.24.48-.94,1.62-1.11,2.2-1.93.07-.11.25-.15.38-.21.19-.1.39-.16.57-.28.77-.52,1.96-.87,2.91-.87.36,0,.72-.04,1.07-.12.66-.16,1.27-.01,1.87.24.47.19.93.04,1.38-.02.74-.11,1.45-.02,2.12.23,2.28.84,4.34,1.96,5.91,3.95,1.13,1.43,1.58,3,1.78,4.73.14,1.27-.52,2.24-1.03,3.31-.44.92-1.45,1.26-1.88,2.14-.02.04-.07.06-.08.1-.13,1.13-1.06,1.9-1.36,2.97-.16.59.08,1.08.17,1.6.11.68-.57,1.7-1.24,1.83-.95.18-1.87.27-2.73-.32-.13-.09-.3-.07-.39.08-.41.68-.45,1.45-.7,2.18-.7-.33-1.5-.71-2.31-1.09.05-.12.11-.25.16-.37,0-.07,0-.15-.01-.22-.05-.22-.08-.46-.16-.67-.08-.19-.39-.32-.43-.14-.1.44-.61.74-.4,1.26h0ZM18.37,12.09c-.18.01-.2-.14-.28-.18-.36-.2-.7-.59-1.14-.46-.7.2-1.47,1.43-1.48,2.22,0,.12-.03.26-.11.35-.45.55-.39,1.16-.27,1.79.04.21.04.34.33.32.31-.03.41.17.14.37-.28.2-.24.44-.13.67.11.24.34.17.56.12.49-.12.97-.11,1.4.18.31.21.63.13.9-.01,1.12-.56,1.66-2.57.99-3.66-.07-.11-.08-.19-.08-.33.02-.64-.11-1.25-.49-1.79-.16-.22-.36-.27-.62-.19.12.19.4.29.28.6ZM24.85,16.82c.13-.46.39-.37.67-.41.58-.07,1.19.14,1.76-.25,1.3-.9,1.08-2.93.44-3.88-.23-.34-.57-.38-.9-.28-1.38.42-2.17,1.16-2.31,2.66-.06.69.09,1.32.34,2.16ZM23.65,18.72c.1-.6-.36-.92-.52-1.36-.08-.21-.35-.18-.49-.03-.55.55-1,1.19-1.17,1.95-.06.29-.4.81.07.94.47.14.5-.48.68-.77.41-.69.72-.88,1.43-.73Z"/>
      <path class="cls-1" d="M37.17,29.87c.44-.82-.41-.79-.88-.92-.58-.17-1.06-.47-1.51-.82-1.08-.85-1.97-1.97-3.31-2.47-.38-.87-1.43-1.16-1.74-2.08-.14-.41-.05-.84-.06-1.26,0-.24.13-.5-.11-.72-.09-.09-.12-.27.08-.26.49.02.31-.41.46-.61.15-.2-.4-.32-.07-.44.34-.12.74-.31,1.1-.06.8.58,1.65,1.12,2.23,1.94.16.22.4.31.59.47.62.54,1.39.9,1.93,1.53.37.43.98.33,1.38.68.14.13.27.12.09.39-.21.33.16.74.45.72.51-.05.98.24,1.52-.04,1.13-.6,2.26-.26,3.34.25.34.16.52.51.43.84-.2.73-.25,1.58-1,2.03-.7.42-.78,1.07-.79,1.77,0,.4-.01.81,0,1.21.02.62-.36.91-.89,1.06-.2.06-.42.09-.6.18-.4.2-.72.5-1.24.12-.39-.28-.7-.53-.9-.99-.32-.77-.5-1.56-.51-2.52Z"/>
      <path class="cls-1" d="M42.74,5.46c.62.25,1.47.05,2.25.34.97.36,1.55,1.36,1.43,2.38-.09.75-.41,1.1-1.08,1.47-1.19.66-2.35.4-3.53.24-.18-.02-.33-.18-.51-.25-.27-.12-.42-.61-.78-.4-.44.26-.9.57-1.14,1.05-.13.27-.16.46-.51.25-.14-.08-.33.1-.33.22.01.56-.37.61-.77.73-.27.08-.67.15-.52.63-.37.09-.66.33-.98.49-.35.16-.48.37-.55.71-.15.68-.34.72-.87.24-.55-.5-.56-1.15-.54-1.81.02-.45.07-.88-.18-1.29-.17-.29-.1-.58.2-.76.96-.59,1.76-1.38,2.59-2.13.57-.51.96-1.17,1.44-1.76.19-.23.02-.45-.08-.65-.28-.53-.35-1.11-.28-1.66.11-.92.72-1.46,1.6-1.67.74-.18,1.37.02,1.94.58.46.45.98.82,1.13,1.51.11.5.04.97.06,1.56Z"/>
      <path class="cls-1" d="M5.49,33.11c.28-.17.44-.27.64-.4-.27-.17-.5-.33-.75-.47-.74-.4-1.01-1.01-.79-1.85.17-.66.83-.95,1.59-1.09.75-.13,1.34.37,2.05.27.34-.05.58-.12.78-.42.32-.47.65-.93,1.04-1.34,1.14-1.2,1.94-2.64,2.87-3.99.41-.59.7-1.28,1.32-1.75.44-.33.82-.29,1.21,0,.85.62,1.42,2.4,1.03,3.38-.17.44-.49.81-.72,1.23-.14.26-.46.44-.28.84.08.18-.16.32-.32.31-.74-.05-1.13.53-1.32,1.01-.38.96-1.09,1.64-1.65,2.46-.26.39-.37.69-.2,1.2.26.76.68,1.51.46,2.38-.06.25-.13.42-.41.48-.35.08-.68.21-1.03.3-.4.1-.82.03-1.02-.31-.29-.5-.79-.88-.88-1.51-.05-.31-.53-.48-.24-.93.09-.15-.2-.21-.41-.21-.95.02-1.86.37-2.98.41Z"/>
      <path class="cls-1" d="M3.51,1.44c.65-.26.99-.86,1.51-1.25.36-.27.67-.21.99-.06.43.2.98,1.39.77,1.82-.24.48-.14.99-.28,1.48-.12.43.2.78.5,1.04.36.31.82.5,1.2.78.25.18.85.02.67.65,0,.03.16.12.26.16.66.25,1.11.74,1.54,1.28.47.6.5,1.22-.02,1.77-.23.24-.27.47-.18.74.2.62-.22.94-.59,1.28-.21.18-.38.02-.56-.11-.37-.25-.58-.64-.73-1.01-.37-.92-1.21-1.17-1.97-1.56-.09-.05-.23-.03-.29-.1-.55-.62-1.15-.64-1.93-.38-.46.15-1.06.05-1.55-.11-.74-.24-1.59-.23-2.14-.97-.27-.37-.9-1.65-.65-1.87.54-.47.55-1.32,1.22-1.64.61-.3,1.21-.65,1.93-.65.66,0,.41-.68.63-1.01.17-.27-.26-.05-.33-.28Z"/>
      <path class="cls-1" d="M21.51,28.42c.27-.34.51-.56.66-.82.33-.6.86-.69,1.45-.63.64.07,1.35-.16,1.88.48.15.18.31-.1.38-.28q.47-1.2,1.73-1.18c1.25.02,1.59.59,1.06,1.72-.14.3-.27.62-.38.94-.17.5-.44.86-1.02.88-.33.01-.49.3-.61.49-.55.87-1.6.65-2.32,1.11-.07.05-.27-.02-.35-.09-.4-.41-.77-.27-1.19-.03-.26.14-.58.43-.81-.09-.03-.08-.23-.13-.34-.12-.99.19-1.47-.48-1.89-1.17-.24-.38-.68-.58-.74-1.13-.1-1.07.29-1.49,1.35-1.29.27.05.57,0,.8.12.38.18.38.59.35,1.08Z"/>
      <path class="cls-1" d="M21.43,25.03c-.08-.09-.17-.17-.25-.26h0c.21-.04.43-.08.64-.13,0,.04,0,.09,0,.13h0c-.09.04-.17.08-.26.13h0s-.09.08-.13.13Z"/>
      <path class="cls-1" d="M21.8,24.9c-.08.04-.17.09-.25.13,0-.04,0-.09,0-.13h0c.09,0,.17,0,.26,0h0Z"/>
      <path class="cls-1" d="M21.81,24.77s.1.09.14.13c-.05,0-.1,0-.14,0h0s0-.08,0-.13h0Z"/>
      <path class="cls-1" d="M21.55,24.27c.23-.32.42-.02.62.05,0,.07,0,.15.01.22-.08,0-.16-.01-.25-.02h0s-.09-.09-.13-.13h0c-.09-.04-.18-.08-.26-.13h0Z"/>
      <path class="cls-1" d="M21.81,24.65s0-.09,0-.13h0s.09,0,.13,0h0s-.09.09-.13.13Z"/>
      <path class="cls-1" d="M21.81,24.52c-.08-.08-.5.17-.26-.25h0c.09.04.18.09.26.13h0s0,.08,0,.13h0Z"/>
      <path class="cls-1" d="M21.7,23.71s0-.04,0-.04c.01,0,.03,0,.05,0,0,.01,0,.04,0,.04-.01,0-.03,0-.05,0Z"/>
    </g>
  </g>
</svg>